<?xml version="1.0" standalone="no"?>
<!DOCTYPE svg PUBLIC "-//W3C//DTD SVG 20010904//EN"
 "http://www.w3.org/TR/2001/REC-SVG-20010904/DTD/svg10.dtd">
<svg version="1.0" xmlns="http://www.w3.org/2000/svg"
 width="720.000000pt" height="720.000000pt" viewBox="0 0 720.000000 720.000000"
 preserveAspectRatio="xMidYMid meet">
<metadata>
Created by potrace 1.14, written by Peter Selinger 2001-2017
</metadata>
<g transform="translate(0.000000,720.000000) scale(0.100000,-0.100000)"
fill="#000000" stroke="none">
<path d="M0 3600 l0 -3600 3600 0 3600 0 0 3600 0 3600 -3600 0 -3600 0 0
-3600z m5050 2243 c62 -26 136 -95 169 -158 37 -71 41 -134 41 -577 0 -357 -2
-435 -15 -464 -13 -32 -13 -38 0 -57 13 -19 15 -204 15 -1473 0 -927 -4 -1470
-10 -1504 -14 -76 -47 -134 -105 -189 -99 -93 33 -86 -1550 -86 -1322 0 -1393
1 -1443 18 -74 26 -151 100 -188 179 l-29 63 -3 1381 c-2 909 1 1391 8 1408
18 49 94 55 116 9 5 -10 11 -635 14 -1415 l5 -1396 31 -38 c17 -21 50 -49 74
-61 l43 -23 1371 0 c1304 0 1373 1 1411 19 46 21 101 79 112 119 5 15 8 686 8
1492 l0 1465 -430 5 -429 5 -16 28 c-13 24 -13 30 0 55 l16 27 429 5 430 5 0
445 c0 245 -3 457 -8 472 -11 40 -66 98 -112 119 -38 18 -107 19 -1411 19
l-1371 0 -43 -23 c-24 -12 -57 -40 -74 -61 l-31 -38 -3 -469 -3 -469 428 -2
427 -3 16 -27 c13 -25 13 -31 0 -55 l-16 -28 -444 -3 c-317 -2 -453 1 -473 9
-15 6 -38 26 -50 43 l-22 31 0 480 0 480 29 62 c47 102 133 171 240 193 23 4
660 7 1416 7 l1375 -2 55 -22z m-267 -244 c51 -14 102 -61 122 -112 13 -36 16
-79 13 -259 l-3 -216 -31 -39 c-17 -21 -48 -48 -70 -60 l-39 -23 -1175 0
c-1126 0 -1177 1 -1216 19 -51 23 -89 71 -104 132 -7 29 -10 114 -8 235 3 185
4 190 30 235 28 47 62 76 107 89 41 13 2329 12 2374 -1z m-2098 -1158 c50 -22
91 -69 105 -119 5 -20 10 -89 10 -152 0 -134 -15 -178 -75 -228 -46 -38 -107
-52 -220 -52 -113 0 -174 14 -220 52 -60 50 -75 94 -75 228 0 131 10 176 47
221 48 57 90 69 248 69 114 0 147 -4 180 -19z m753 -14 c65 -43 85 -92 90
-220 7 -168 -22 -242 -111 -289 -38 -20 -57 -23 -182 -23 -127 0 -144 2 -188
24 -30 15 -58 39 -75 64 -25 38 -27 48 -30 176 -4 156 4 194 50 238 63 60 77
64 249 61 151 -3 157 -4 197 -31z m695 19 c43 -18 94 -71 109 -115 8 -22 13
-85 13 -161 0 -119 -1 -127 -28 -172 -18 -31 -44 -57 -75 -75 -46 -27 -51 -28
-192 -28 -129 0 -149 3 -185 22 -46 24 -65 44 -91 93 -16 29 -19 57 -19 171 0
133 1 136 30 184 20 32 45 56 74 72 40 21 57 23 188 23 98 0 154 -4 176 -14z
m732 -5 c90 -42 115 -97 115 -258 0 -148 -9 -180 -64 -231 -56 -52 -121 -66
-267 -60 -119 6 -162 21 -208 74 -40 45 -51 90 -51 215 0 157 28 220 115 260
33 15 65 19 180 19 115 0 147 -4 180 -19z m-2178 -705 c36 -17 60 -38 80 -67
27 -42 28 -45 28 -188 0 -174 -12 -207 -90 -256 -47 -29 -53 -30 -187 -33
-134 -3 -142 -3 -194 23 -37 18 -64 40 -82 68 -26 40 -27 44 -27 192 0 149 0
152 28 194 20 29 44 50 80 67 47 21 66 24 182 24 116 0 135 -3 182 -24z m711
8 c44 -18 87 -57 110 -99 14 -24 17 -58 17 -170 0 -156 -6 -178 -69 -233 -53
-46 -94 -55 -248 -51 -133 4 -137 5 -180 34 -23 17 -53 49 -65 70 -20 36 -23
54 -23 178 0 116 3 144 19 175 25 49 60 81 108 97 56 20 282 20 331 -1z m717
5 c25 -7 56 -27 81 -54 49 -50 64 -103 64 -220 0 -117 -15 -170 -64 -220 -53
-55 -90 -65 -244 -65 -137 0 -176 10 -230 63 -43 42 -62 109 -62 222 0 155 41
236 136 270 48 17 262 20 319 4z m726 0 c54 -19 100 -58 121 -106 17 -38 19
-63 16 -182 -3 -131 -4 -139 -31 -180 -20 -29 -44 -50 -80 -67 -47 -21 -66
-24 -183 -24 -120 0 -134 2 -182 26 -39 19 -59 38 -80 72 -26 45 -27 52 -27
187 0 135 1 142 27 187 21 34 41 53 80 72 48 24 62 26 178 26 70 0 142 -5 161
-11z m-2166 -708 c42 -17 84 -59 106 -106 15 -32 19 -64 19 -155 0 -131 -10
-176 -47 -221 -48 -57 -90 -69 -248 -69 -158 0 -200 12 -248 69 -37 45 -47 90
-47 221 0 90 4 124 19 155 24 53 81 102 128 110 21 4 43 8 48 11 21 8 241 -4
270 -15z m742 -9 c89 -46 117 -120 112 -290 -4 -100 -7 -113 -34 -157 -20 -32
-45 -57 -75 -72 -43 -23 -53 -24 -202 -21 l-156 3 -38 31 c-76 61 -79 69 -82
230 -3 132 -2 148 18 190 26 53 77 90 141 104 24 5 96 8 159 6 94 -2 123 -7
157 -24z m729 -3 c34 -18 58 -40 79 -74 29 -47 30 -52 30 -174 0 -141 -10
-182 -55 -228 -54 -56 -83 -63 -242 -63 -132 0 -149 2 -189 23 -29 16 -54 40
-74 72 -29 48 -30 51 -30 184 0 114 3 142 19 171 52 99 108 120 297 116 102
-2 123 -5 165 -27z m719 12 c49 -22 91 -69 105 -119 8 -25 10 -195 8 -523 l-3
-486 -28 -40 c-48 -69 -93 -87 -233 -91 -154 -5 -215 10 -267 67 -20 22 -40
57 -46 78 -15 53 -15 934 0 988 15 56 50 99 101 124 38 18 60 21 183 21 114 0
147 -4 180 -19z m-2180 -710 c50 -22 91 -69 105 -119 16 -59 13 -256 -6 -300
-18 -44 -58 -88 -99 -110 -35 -18 -203 -28 -288 -18 -75 10 -131 48 -162 110
-22 44 -25 63 -25 165 0 132 10 177 47 222 48 57 90 69 248 69 114 0 147 -4
180 -19z m736 -4 c29 -16 54 -40 74 -72 27 -43 30 -57 33 -153 6 -146 -8 -203
-63 -257 -55 -56 -112 -69 -266 -63 -135 5 -183 24 -226 90 -28 41 -28 44 -28
199 l0 157 31 39 c16 21 50 48 74 61 40 20 59 22 186 22 128 0 145 -2 185 -23z
m714 4 c96 -43 131 -130 123 -301 -9 -185 -67 -240 -263 -248 -155 -6 -215 8
-270 63 -50 50 -65 102 -65 228 1 146 29 209 114 252 46 23 61 25 185 25 110
0 144 -4 176 -19z"/>
<path d="M2425 5455 c-25 -24 -25 -26 -25 -208 0 -179 1 -184 23 -205 l23 -22
1152 0 c1139 0 1152 0 1172 20 19 19 20 33 20 208 0 184 -1 189 -23 210 l-23
22 -1148 0 -1147 0 -24 -25z"/>
<path d="M2360 4310 c-18 -18 -20 -33 -20 -128 0 -155 -3 -152 165 -152 168 0
165 -3 165 152 0 148 0 148 -165 148 -112 0 -127 -2 -145 -20z"/>
<path d="M3087 4312 c-14 -15 -17 -41 -17 -134 0 -152 -4 -148 163 -148 165 0
167 2 167 143 0 93 -9 133 -34 149 -6 4 -68 8 -137 8 -109 0 -128 -2 -142 -18z"/>
<path d="M3814 4309 c-14 -16 -20 -40 -23 -100 -2 -44 0 -95 3 -114 12 -61 23
-65 165 -65 165 0 161 -4 161 152 0 151 4 148 -162 148 -114 0 -127 -2 -144
-21z"/>
<path d="M4540 4310 c-18 -18 -20 -33 -20 -130 0 -151 -1 -150 169 -150 164 0
161 -2 161 152 0 148 0 148 -165 148 -112 0 -127 -2 -145 -20z"/>
<path d="M2362 3607 c-20 -21 -22 -34 -22 -134 0 -109 1 -112 26 -132 23 -18
41 -21 139 -21 98 0 116 3 139 21 25 20 26 23 26 133 0 105 -2 114 -23 134
-21 20 -34 22 -143 22 -113 0 -122 -1 -142 -23z"/>
<path d="M3090 3610 c-18 -18 -20 -33 -20 -132 0 -62 4 -118 8 -124 17 -26 56
-34 162 -34 104 0 112 1 135 25 23 23 25 31 25 130 0 99 -2 107 -25 130 -23
24 -30 25 -145 25 -107 0 -122 -2 -140 -20z"/>
<path d="M3819 3611 c-23 -18 -24 -25 -24 -136 0 -112 1 -118 25 -137 22 -18
36 -19 148 -16 156 4 152 0 152 155 0 153 0 153 -159 153 -102 0 -122 -3 -142
-19z"/>
<path d="M4542 3607 c-20 -21 -22 -34 -22 -131 0 -100 2 -108 25 -131 23 -24
30 -25 138 -25 100 0 117 3 141 21 25 20 26 23 26 133 0 105 -2 114 -23 134
-21 20 -34 22 -143 22 -113 0 -122 -1 -142 -23z"/>
<path d="M2383 2920 c-35 -15 -43 -43 -43 -154 0 -146 0 -146 165 -146 166 0
165 -1 165 149 0 153 -2 155 -152 158 -62 2 -123 -2 -135 -7z"/>
<path d="M3120 2923 c-45 -17 -50 -31 -50 -154 0 -152 -3 -149 166 -149 120 0
123 0 143 26 18 23 21 41 21 125 0 114 -3 125 -41 144 -28 15 -205 20 -239 8z"/>
<path d="M3832 2918 c-32 -16 -45 -71 -41 -170 6 -126 9 -128 169 -128 164 0
160 -4 160 152 0 152 0 152 -154 155 -67 2 -120 -2 -134 -9z"/>
<path d="M4542 2907 c-22 -23 -22 -25 -22 -483 0 -400 2 -462 16 -482 14 -21
22 -22 148 -22 116 0 135 2 149 18 15 17 17 65 17 485 0 454 -1 468 -20 487
-18 18 -33 20 -143 20 -116 0 -125 -1 -145 -23z"/>
<path d="M2360 2200 c-18 -18 -20 -33 -20 -128 0 -155 -3 -152 165 -152 168 0
165 -3 165 152 0 148 0 148 -165 148 -112 0 -127 -2 -145 -20z"/>
<path d="M3090 2200 c-18 -18 -20 -33 -20 -133 0 -151 -4 -147 168 -147 164 0
162 -2 162 146 0 87 -3 105 -21 128 -20 26 -22 26 -145 26 -111 0 -126 -2
-144 -20z"/>
<path d="M3814 2199 c-14 -16 -20 -40 -23 -100 -2 -44 0 -95 3 -114 12 -61 23
-65 165 -65 165 0 161 -4 161 152 0 151 4 148 -162 148 -114 0 -127 -2 -144
-21z"/>
</g>
</svg>
